<svg width="16" height="16" viewBox="0 0 16 16" fill="none" xmlns="http://www.w3.org/2000/svg">
<path fill-rule="evenodd" clip-rule="evenodd" d="M11.0638 11.4934C9.89095 12.6662 8.27069 13.3917 6.48101 13.3917C2.90165 13.3917 0 10.49 0 6.91064C0 3.33127 2.90165 0.429626 6.48101 0.429626C10.0604 0.429626 12.962 3.33127 12.962 6.91064C12.962 8.26117 12.5489 9.51521 11.8422 10.5533L15.822 14.5331C16.0593 14.7704 16.0593 15.1551 15.822 15.3924C15.5848 15.6297 15.2001 15.6297 14.9628 15.3924L11.0638 11.4934ZM11.7468 6.91064C11.7468 9.81887 9.38925 12.1765 6.48101 12.1765C3.57278 12.1765 1.21519 9.81887 1.21519 6.91064C1.21519 4.00241 3.57278 1.64482 6.48101 1.64482C9.38925 1.64482 11.7468 4.00241 11.7468 6.91064Z" fill="#191C1F"/>
</svg>
